<?xml version="1.0" standalone="no"?><!DOCTYPE svg PUBLIC "-//W3C//DTD SVG 1.1//EN" "http://www.w3.org/Graphics/SVG/1.1/DTD/svg11.dtd"><svg t="1694496592531" class="icon" viewBox="0 0 1024 1024" version="1.1" xmlns="http://www.w3.org/2000/svg" p-id="4343" xmlns:xlink="http://www.w3.org/1999/xlink" width="200" height="200"><path d="M512 512m-448 0a448 448 0 1 0 896 0 448 448 0 1 0-896 0Z" fill="#8E9EAC" p-id="4344"></path><path d="M586.14 665.526l-35.796-62c-11.806 4.901-24.758 7.608-38.344 7.608-50.709 0-92.592-37.707-99.028-86.555h-71.707C347.98 612.818 421.855 682.33 512 682.33c26.56 0 51.707-6.034 74.14-16.804z m22.516-13.002c45.032-30.784 74.576-82.481 74.576-141.064 0-58.54-29.501-110.205-74.477-140.997l-35.808 62.021c23.682 18.226 38.938 46.823 38.938 78.976 0 32.195-15.297 60.826-39.034 79.048l35.805 62.016z m-22.408-295.08c-22.46-10.801-47.646-16.855-74.248-16.855-90.226 0-164.154 69.637-170.753 157.99h71.694c6.331-48.964 48.268-86.794 99.059-86.794 13.628 0 26.619 2.724 38.455 7.655l35.793-61.995zM340.77 510.625a174.145 174.145 0 0 0 0 1.671v-1.671z m86.83 238.821l1.407-6.013c2.382-10.182-2.194-20.72-11.269-25.948l-37.407-21.551c-9.074-5.228-20.508-3.914-28.154 3.236l-4.496 4.204a9 9 0 0 1-12.504-0.203l-15.267-15.235a9 9 0 0 1-0.203-12.531l4.187-4.46a23.693 23.693 0 0 0 3.243-28.093l-21.597-37.329c-5.24-9.055-15.8-13.621-26.003-11.244l-6.059 1.411a9 9 0 0 1-10.736-6.436l-5.57-20.795a9 9 0 0 1 6.089-10.944l5.923-1.79c10.028-3.033 16.885-12.257 16.885-22.713v-43.103c0-10.456-6.857-19.68-16.885-22.712l-5.923-1.791a9 9 0 0 1-6.089-10.944l5.57-20.794a9 9 0 0 1 10.736-6.437l6.059 1.411c10.203 2.378 20.764-2.189 26.003-11.244l21.597-37.329a23.693 23.693 0 0 0-3.243-28.094l-4.187-4.458a9 9 0 0 1 0.203-12.532l15.267-15.235a9 9 0 0 1 12.504-0.203l4.496 4.205c7.646 7.15 19.08 8.464 28.154 3.236l37.407-21.552c9.075-5.228 13.65-15.766 11.269-25.948l-1.407-6.013a9 9 0 0 1 6.444-10.746l20.871-5.567a9 9 0 0 1 10.932 6.08l1.796 5.915c3.038 10.007 12.282 16.85 22.76 16.85h43.194c10.478 0 19.722-6.843 22.76-16.85l1.796-5.914a9 9 0 0 1 10.932-6.081l20.871 5.567a9 9 0 0 1 6.444 10.746l-1.407 6.013c-2.382 10.182 2.194 20.72 11.269 25.948l37.407 21.552c9.074 5.228 20.508 3.913 28.154-3.236l4.496-4.205a9 9 0 0 1 12.504 0.203l15.267 15.235a9 9 0 0 1 0.203 12.532l-4.187 4.458a23.693 23.693 0 0 0-3.243 28.094l21.597 37.329c5.24 9.055 15.8 13.622 26.003 11.244l6.059-1.411a9 9 0 0 1 10.736 6.437l5.57 20.794a9 9 0 0 1-6.089 10.944l-5.923 1.79c-10.028 3.033-16.885 12.257-16.885 22.713v43.103c0 10.456 6.857 19.68 16.885 22.712l5.923 1.791a9 9 0 0 1 6.089 10.944l-5.57 20.795a9 9 0 0 1-10.736 6.436l-6.059-1.411c-10.203-2.377-20.764 2.19-26.003 11.244l-21.597 37.329a23.693 23.693 0 0 0 3.243 28.094l4.187 4.459a9 9 0 0 1-0.203 12.531l-15.267 15.235a9 9 0 0 1-12.504 0.203l-4.496-4.204c-7.646-7.15-19.08-8.464-28.154-3.236l-37.407 21.551c-9.075 5.228-13.65 15.766-11.269 25.948l1.407 6.013a9 9 0 0 1-6.444 10.746l-20.871 5.567a9 9 0 0 1-10.932-6.08l-1.796-5.915c-3.038-10.006-12.282-16.85-22.76-16.85h-43.194c-10.478 0-19.722 6.844-22.76 16.85l-1.796 5.915a9 9 0 0 1-10.932 6.08l-20.871-5.567a9 9 0 0 1-6.444-10.746zM512 579.997c37.556 0 68-30.445 68-68 0-37.556-30.444-68-68-68-37.554 0-68 30.444-68 68 0 37.555 30.446 68 68 68zM512 542c-16.569 0-30-13.431-30-30 0-16.569 13.431-30 30-30 16.569 0 30 13.431 30 30 0 16.569-13.431 30-30 30z" fill="#FFFFFF" p-id="4345"></path></svg>